<?xml version="1.0" encoding="UTF-8" standalone="no"?>
<svg
   xmlns:dc="http://purl.org/dc/elements/1.1/"
   xmlns:cc="http://creativecommons.org/ns#"
   xmlns:rdf="http://www.w3.org/1999/02/22-rdf-syntax-ns#"
   xmlns:svg="http://www.w3.org/2000/svg"
   xmlns="http://www.w3.org/2000/svg"
   id="a0910be2-6cb3-414b-9b74-c9f97494131d"
   data-name="Layer 1"
   width="887"
   height="793"
   viewBox="0 0 887 793"
   version="1.1">
  <metadata
     id="metadata1073">
    <rdf:RDF>
      <cc:Work
         rdf:about="">
        <dc:format>image/svg+xml</dc:format>
        <dc:type
           rdf:resource="http://purl.org/dc/dcmitype/StillImage" />
        <dc:title>lost_online</dc:title>
      </cc:Work>
    </rdf:RDF>
  </metadata>
  <defs
     id="defs1071" />
  <title
     id="title980">lost_online</title>
  <ellipse
     style="stroke-width:1.3424"
     transform="scale(-1,1)"
     cx="-167.08296"
     cy="747.94904"
     rx="167.08296"
     ry="45.050968"
     fill="#e6e6e6"
     id="ellipse982" />
  <path
     d="m 887.00002,0 h -886 V 7.3e-4 A -733.99927,733.99927 0 0 0 734.99929,734 h 152.00073 z"
     fill="#3f3d56"
     id="path984" />
  <circle
     transform="scale(-1,1)"
     cx="-234.14101"
     cy="178.42493"
     r="71.883133"
     fill="#f2f2f2"
     id="circle986" />
  <circle
     r="6.1614099"
     transform="scale(-1,1)"
     cx="-725.62415"
     cy="101.27955"
     fill="#ff6584"
     id="circle988" />
  <circle
     transform="scale(-1,1)"
     cx="-254.67909"
     cy="445.41943"
     r="6.1614099"
     fill="#ff6584"
     id="circle990" />
  <circle
     r="6.1614099"
     transform="scale(-1,1)"
     cx="-534.11115"
     cy="120.28437"
     fill="#f2f2f2"
     id="circle992" />
  <circle
     transform="scale(-1,1)"
     cx="-393.31085"
     cy="198.96297"
     r="6.1614099"
     fill="#f2f2f2"
     id="circle996" />
  <circle
     r="6.1614099"
     transform="scale(-1,1)"
     cx="-831.62073"
     cy="243.49043"
     fill="#f2f2f2"
     id="circle998" />
  <circle
     transform="scale(-1,1)"
     cx="-602.79883"
     cy="413.58545"
     r="209.48799"
     fill="#6395ff"
     id="circle1000" />
  <circle
     transform="scale(-1,1)"
     cx="-612.04095"
     cy="328.3526"
     r="30.80706"
     opacity="0.2"
     id="circle1002" />
  <circle
     transform="scale(-1,1)"
     cx="-612.04095"
     cy="534.75989"
     r="53.398899"
     opacity="0.2"
     id="circle1004" />
  <circle
     transform="scale(-1,1)"
     cx="-767.10315"
     cy="453.63464"
     r="13.34972"
     opacity="0.2"
     id="circle1006" />
  <circle
     transform="scale(-1,1)"
     cx="-240.39412"
     cy="141.34644"
     r="7.0966301"
     opacity="0.2"
     id="circle1008" />
  <circle
     transform="scale(-1,1)"
     cx="-541.27637"
     cy="282.03198"
     r="7.0966301"
     opacity="0.2"
     id="circle1010" />
  <circle
     transform="scale(-1,1)"
     cx="-621.28308"
     cy="422.82758"
     r="9.2421198"
     opacity="0.2"
     id="circle1012" />
  <circle
     transform="scale(-1,1)"
     cx="-257.66812"
     cy="198.0461"
     r="7.0966301"
     opacity="0.2"
     id="circle1014" />
  <circle
     transform="scale(-1,1)"
     cx="-448.67188"
     cy="372.61942"
     r="7.0966301"
     opacity="0.2"
     id="circle1016" />
  <circle
     transform="scale(-1,1)"
     cx="-194.0735"
     cy="191.35289"
     r="10.25068"
     opacity="0.2"
     id="circle1018" />
  <circle
     transform="scale(-1,1)"
     cx="-507.27863"
     cy="444.99765"
     r="10.25068"
     opacity="0.2"
     id="circle1020" />
  <circle
     transform="scale(-1,1)"
     cx="-732.18848"
     cy="328.3526"
     r="13.34972"
     opacity="0.2"
     id="circle1022" />
  <path
     d="m 557.41054,534.3377 a -586.0229,586.0229 0 0 0 65.92931,-3.80977 c 65.831,-7.47613 126.5456,-25.142 170.95911,-49.74257 44.957,-24.90237 67.96155,-54.06077 64.777,-82.104 -2.20623,-19.42891 -20.9853,-36.81905 -57.40973,-53.16223 a -2.05428,2.05428 0 0 0 -1.68175,3.74859 c 34.98737,15.69736 52.98122,32.01246 55.00995,49.87695 2.98544,26.28527 -19.277,54.0026 -62.68614,78.04755 -43.95221,24.3458 -104.12425,41.83723 -169.4318,49.25419 -65.308,7.417 -127.86934,3.86291 -176.16181,-10.00628 -47.69579,-13.69871 -75.60666,-35.71794 -78.59109,-62.00321 -2.01971,-17.78226 7.775,-36.63654 28.325,-54.52609 a -2.0542314,2.0542314 0 0 0 -2.69762,-3.09876 c -21.61508,18.81718 -31.88812,38.90394 -29.709,58.08815 3.185,28.04325 32.14183,51.301 81.53842,65.48706 32.16152,9.2371 70.54899,13.95042 111.83015,13.95042 z"
     fill="#ffffff"
     id="path1024" />
  <g
     transform="translate(6,-6)"
     id="g1015">
    <circle
       id="circle994"
       fill="#f2f2f2"
       r="6.1614099"
       cy="329.37952"
       cx="-147.8813"
       transform="scale(-1,1)" />
    <circle
       id="circle1036"
       fill="#ffb8b8"
       r="34.141457"
       cy="195.07956"
       cx="-152.67107"
       transform="scale(-1,1)"
       style="stroke-width:1.1442" />
    <path
       id="path1064"
       fill="#2f2e41"
       d="m 185.44695,203.73864 c 0,0 28.63367,-46.40633 -1.86505,-48.81996 a 77.75555,77.75555 0 0 1 -29.2481,-7.96945 c -10.10961,-5.14441 -22.83524,-9.05466 -29.60715,-1.13549 a 50.320217,50.320217 0 0 1 -10.23659,9.48315 c -5.94863,3.94506 -12.83143,10.3404 -9.02016,17.20069 l 6.2482,11.24676 8.74755,22.49353 c -2.03707,-9.70208 -2.08831,-17.84815 3.12412,-21.86872 0,0 29.0813,12.37581 43.73723,-9.99711 16.40634,-12.30966 21.62608,26.43569 18.11995,29.3666 z"
       style="stroke-width:1.1442" />
    <polygon
       id="polygon36"
       fill="#2f2e41"
       points="633.276,588.494 643.203,490.408 641.615,485.246 621.362,482.069 619.774,489.614 617.788,497.159 611.435,586.905 "
       transform="matrix(1.6350964,0,0,1.6350964,-852.05355,-252.64858)" />
    <path
       id="path38"
       fill="#2f2e41"
       d="m 133.41636,686.86944 -14.93406,22.72575 c 0,0 -41.55563,33.76396 -11.68752,35.71186 29.86811,1.94791 40.90638,-20.12851 40.90638,-20.12851 0,0 10.3889,-3.24653 11.68753,-6.49306 1.29862,-3.24654 -2.59724,-31.81604 -2.59724,-31.81604 z"
       style="stroke-width:1.6351" />
    <path
       id="path40"
       fill="#2f2e41"
       d="m 150.29834,704.40073 c 0,0 -14.93406,37.65979 -12.98614,44.15286 1.94793,6.49306 5.19446,6.49308 4.54515,12.3368 -0.64932,5.84372 -2.59722,19.4792 22.07643,20.12851 24.67365,0.64931 12.98613,-32.46535 12.98613,-32.46535 l -3.24653,-44.15285 z"
       style="stroke-width:1.6351" />
    <path
       id="path42"
       fill="#2f2e41"
       d="m 104.84692,425.84813 c 0,0 -9.09028,15.58335 -7.79167,25.32297 1.29861,9.73961 20.12848,114.27798 20.12848,114.27798 l 14.93405,127.26413 33.11464,-2.59723 -12.98613,-117.52452 3.24653,-93.50018 5.84384,68.82652 38.3091,1.29861 22.72574,-98.04528 c 0,0 -16.88197,-27.27089 -20.12851,-29.21881 -3.24653,-1.94793 -97.39607,3.89581 -97.39607,3.89581 z"
       style="stroke-width:1.6351" />
    <polygon
       id="polygon46"
       fill="#ffb8b8"
       points="610.243,310.916 636.452,306.945 622.157,280.339 607.861,288.281 "
       transform="matrix(1.6350964,0,0,1.6350964,-852.05355,-252.64858)" />
    <path
       id="path48"
       fill="#d0cde1"
       d="m 185.3609,238.19846 c 0,0 -22.07643,16.23267 -43.50355,7.14238 l -32.46533,82.46195 v 103.23979 c 0,0 48.69807,14.28475 75.96888,-2.59723 0,0 19.4792,-3.89583 22.72573,-3.24653 3.24654,0.64929 -11.68752,-175.96213 -11.68752,-175.96213 z"
       style="stroke-width:1.6351" />
    <path
       id="path50"
       fill="#575a89"
       d="m 165.23239,242.09431 14.93406,21.42712 a 25.846067,25.846067 0 0 1 2.59723,17.53128 c -1.94792,10.38891 -3.89584,146.09403 14.28474,151.28848 18.18059,5.19446 29.86811,4.54515 29.86811,4.54515 0,0 -16.23266,-77.91681 -10.38891,-91.55232 l 18.18064,-81.81265 -48.0487,-27.27089 c 0,0 -3.00424,-12.33681 -7.9952,-5.51911 a 46.157807,46.157807 0 0 1 -13.43197,11.36294 z"
       style="stroke-width:1.6351" />
    <path
       id="path52"
       fill="#575a89"
       d="m 121.72884,362.86536 22.1789,-124.6669 -22.1789,11.68759 c 0,0 -25.32297,10.38891 -30.51744,22.72575 -5.19448,12.33683 -25.972265,71.42374 -25.972265,71.42374 0,0 5.194456,35.71186 24.673605,20.77781 19.47915,-14.93406 14.93405,-22.07642 14.93405,-22.07642 0,0 -16.88198,68.82651 -14.28474,70.77443 2.59724,1.94792 3.89583,20.12851 3.89583,20.12851 l 20.12851,-3.89585 z"
       style="stroke-width:1.6351" />
    <path
       id="path54"
       fill="#ffb8b8"
       d="m 96.40587,293.38954 8.44099,-12.3368 c 0,0 19.09065,-38.3091 32.92037,-25.32295 13.82973,12.98615 -25.77799,42.85424 -25.77799,42.85424 z"
       style="stroke-width:1.6351" />
    <polygon
       id="polygon56"
       fill="#ffb8b8"
       points="646.777,420.226 654.719,430.445 658.293,423.297 649.954,416.15 "
       transform="matrix(1.6350964,0,0,1.6350964,-852.05355,-252.64858)" />
    <path
       id="path60"
       fill="#575a89"
       d="m 99.00309,286.24716 15.58335,9.73962 -15.58335,64.93067 c 0,0 -24.6736,30.51744 -33.763955,0 C 57.630149,335.373 86.41582,300.275 95.9994,289.51443 c 1.86566,-2.09474 3.00369,-3.26727 3.00369,-3.26727 z"
       style="stroke-width:1.6351" />
    <path
       id="path62"
       fill="#575a89"
       d="m 219.77415,262.22285 h 14.93406 c 0,0 12.98615,25.32297 14.28476,38.9584 1.29861,13.63543 1.29861,67.52785 1.29861,67.52785 l -25.32297,75.31958 -19.4792,-14.28475 16.23267,-44.80217 c 0,0 -1.94793,-9.7396 0,-14.28474 1.94792,-4.54514 -5.84384,-27.92019 -7.14237,-29.21881 -1.29852,-1.29863 5.19444,-79.21536 5.19444,-79.21536 z"
       style="stroke-width:1.6351" />
  </g>
</svg>
