<?xml version="1.0" encoding="UTF-8" standalone="no"?>
<svg
   xmlns:dc="http://purl.org/dc/elements/1.1/"
   xmlns:cc="http://creativecommons.org/ns#"
   xmlns:rdf="http://www.w3.org/1999/02/22-rdf-syntax-ns#"
   xmlns:svg="http://www.w3.org/2000/svg"
   xmlns="http://www.w3.org/2000/svg"
   viewBox="0 0 1011.9548 1011.9548"
   height="1011.9548"
   width="1011.9548"
   xml:space="preserve"
   version="1.1"
   id="svg2"><title
     id="title7784">Medicine doctor - man, with stethoscope, talking</title><metadata
     id="metadata8"><rdf:RDF><cc:Work
         rdf:about=""><dc:format>image/svg+xml</dc:format><dc:type
           rdf:resource="http://purl.org/dc/dcmitype/StillImage" /><dc:title>Medicine doctor - man, with stethoscope, talking</dc:title><cc:license
           rdf:resource="http://creativecommons.org/publicdomain/zero/1.0/" /><dc:subject><rdf:Bag><rdf:li>man</rdf:li><rdf:li>male</rdf:li><rdf:li>stethoscope</rdf:li><rdf:li>talking</rdf:li><rdf:li>advice</rdf:li><rdf:li>work</rdf:li><rdf:li>hospital</rdf:li><rdf:li>ambulance</rdf:li><rdf:li>medicine</rdf:li><rdf:li>doctor</rdf:li><rdf:li>smile</rdf:li><rdf:li>health</rdf:li><rdf:li>cure</rdf:li><rdf:li>injury</rdf:li><rdf:li>tie</rdf:li><rdf:li>publicdomainq.net</rdf:li></rdf:Bag></dc:subject><dc:description>This image was adapted from a picture posted to publicdomainq.net. All of the images on these sites are in the public domain i.e. CC0. This site is only in Japanese but can be easily navigated with Google Translate.</dc:description></cc:Work><cc:License
         rdf:about="http://creativecommons.org/publicdomain/zero/1.0/"><cc:permits
           rdf:resource="http://creativecommons.org/ns#Reproduction" /><cc:permits
           rdf:resource="http://creativecommons.org/ns#Distribution" /><cc:permits
           rdf:resource="http://creativecommons.org/ns#DerivativeWorks" /></cc:License></rdf:RDF></metadata><defs
     id="defs6" /><g
     transform="translate(5.6535697,5.65355)"
     style="display:inline"
     id="layer2"><circle
       r="906.53027"
       transform="matrix(0.54160068,0,0,0.54160068,181.3858,1015.9408)"
       cy="-952.02417"
       cx="588.88043"
       id="path918"
       style="display:inline;opacity:1;fill:#fd6881;fill-opacity:1;stroke:#f4f4f4;stroke-width:36.9276;stroke-linecap:round;stroke-miterlimit:4;stroke-dasharray:none;stroke-opacity:1" /></g><g
     transform="translate(5.6535697,5.65355)"
     style="display:inline"
     id="layer1"><path
       d="m 742.79435,888.75422 c 0,0 -6.38547,-115.81156 -10.18751,-159.48028 -4.86899,-55.96902 -17.72118,-61.56267 -36.67503,-74.4701 C 663.52676,632.74445 585.16418,610.22361 585.16418,610.22361 H 455.83156 c 0,0 -71.27736,11.75815 -103.67862,33.82025 l -52.75082,47.11276 -16.64989,-80.96497 -36.73786,2.44966 -29.94293,19.99265 -11.54048,11.4099 c 0,0 23.25097,132.98843 28.98814,142.56988 6.54796,10.9398 12.24126,23.70153 32.4603,22.16122 25.3767,-1.93135 96.7965,-46.93295 96.7965,-46.93295 l 12.39074,126.91221 h 367.62771"
       style="fill:#3e3d54;fill-opacity:1;fill-rule:nonzero;stroke:none;stroke-width:0.541601"
       id="path14" /><path
       d="M 534.36799,831.86935 C 465.7266,828.16481 400.897,813.82918 362.36753,785.87121 c 1.06804,0.34716 15.0565,102.88301 15.0565,102.88301 h 364.24379 c 0,0 -3.78579,-82.30652 -6.95957,-123.59274 -43.92165,39.26605 -116.52972,71.22482 -200.34026,66.70787"
       style="fill:#3e3d54;fill-opacity:1;fill-rule:nonzero;stroke:none;stroke-width:0.541601"
       id="path16" /><path
       d="m 551.19119,572.66035 c 0,0 -0.31738,20.81372 6.5225,29.44954 l -36.08198,42.38242 -38.34587,-42.38242 c 6.83771,-8.63582 6.52033,-29.44954 6.52033,-29.44954 h 61.38502"
       style="fill:#fcd0b4;fill-opacity:1;fill-rule:nonzero;stroke:none;stroke-width:0.541601"
       id="path18" /><path
       d="m 492.87001,579.35616 h 56.53986 l 3.70238,17.25323 c 0,0 -30.31664,24.30433 -71.1165,15.34897 l 10.87426,-32.6022"
       style="fill:#e59686;fill-opacity:1;fill-rule:nonzero;stroke:none;stroke-width:0.541601"
       id="path20" /><path
       d="m 462.27769,652.93586 57.86245,-12.954 34.43172,7.21845 24.49931,5.73555 -57.2174,184.27314 -59.57608,-184.27314"
       style="fill:#ffffff;fill-opacity:1;fill-rule:nonzero;stroke:none;stroke-width:0.541601"
       id="path22" /><path
       d="m 501.4273,765.33479 11.5518,-80.85719 -19.17862,-39.18372 27.59834,-5.31202 26.11111,5.31202 -19.17158,39.18372 14.0475,83.90586 -20.98703,60.58941 -19.97152,-63.63808"
       style="fill:#ffce64;fill-opacity:1;fill-rule:nonzero;stroke:none;stroke-width:0.541601"
       id="path24" /><path
       d="m 501.0888,766.35246 11.8903,-81.87486 -19.17862,-39.18372 27.59834,-5.31202 26.11111,5.31202 -19.17158,39.18372 13.032,81.19786"
       style="fill:none;stroke:#231f20;stroke-width:4.06201;stroke-linecap:round;stroke-linejoin:round;stroke-miterlimit:10;stroke-dasharray:none;stroke-opacity:1"
       id="path26" /><path
       d="m 512.9791,684.4776 c 0,0 6.0291,-6.23274 15.35925,0"
       style="fill:none;stroke:#231f20;stroke-width:4.06201;stroke-linecap:round;stroke-linejoin:round;stroke-miterlimit:10;stroke-dasharray:none;stroke-opacity:1"
       id="path28" /><path
       d="m 602.8404,615.64557 43.15203,31.9122 -38.8111,14.29338 35.97853,31.03805 -134.84611,184.15079"
       style="fill:none;stroke:#656263;stroke-width:6.49921;stroke-linecap:round;stroke-linejoin:round;stroke-miterlimit:10;stroke-dasharray:none;stroke-opacity:1"
       id="path30" /><path
       d="m 436.5939,613.94278 -42.18527,33.61499 38.8111,14.29338 -35.97636,31.03805 118.29533,152.55814"
       style="fill:none;stroke:#656263;stroke-width:6.49921;stroke-linecap:round;stroke-linejoin:round;stroke-miterlimit:10;stroke-dasharray:none;stroke-opacity:1"
       id="path32" /><path
       d="m 700.31769,748.76723 c 0,0 -14.58314,37.2605 -27.2176,56.21652"
       style="fill:none;stroke:#656263;stroke-width:5.41601;stroke-linecap:round;stroke-linejoin:round;stroke-miterlimit:10;stroke-dasharray:none;stroke-opacity:1"
       id="path34" /><path
       d="m 489.80617,572.66035 c 0,0 0.31738,20.81372 -6.52033,29.44954"
       style="fill:none;stroke:#231f20;stroke-width:7.58241;stroke-linecap:round;stroke-linejoin:round;stroke-miterlimit:10;stroke-dasharray:none;stroke-opacity:1"
       id="path38" /><path
       d="m 467.47164,606.12965 c 0,0 -82.62172,18.74426 -113.15825,38.36266 -14.33346,9.21371 -54.91127,50.77506 -54.91127,50.77506"
       style="fill:none;stroke:#231f20;stroke-width:7.58241;stroke-linecap:round;stroke-linejoin:round;stroke-miterlimit:10;stroke-dasharray:none;stroke-opacity:1"
       id="path40" /><path
       d="m 520.14014,642.12064 c -29.4322,-27.92439 -37.56271,-50.4344 -33.58953,-61.71702 0,0 -10.49351,6.093 -17.94052,23.13014 -15.48653,35.42393 1.50619,66.58114 3.14561,76.26008 0,0 31.38143,-38.39461 48.38444,-37.6732"
       style="fill:#ffffff;fill-opacity:1;fill-rule:nonzero;stroke:none;stroke-width:0.541601"
       id="path42" /><path
       d="m 520.14014,642.12064 c -29.4322,-27.92439 -37.56271,-50.4344 -33.58953,-61.71702 0,0 -10.49351,6.093 -17.94052,23.13014 -15.48653,35.42393 1.50619,66.58114 3.14561,76.26008 0,0 31.38143,-38.39461 48.38444,-37.6732 z"
       style="fill:none;stroke:#231f20;stroke-width:5.41601;stroke-linecap:round;stroke-linejoin:round;stroke-miterlimit:10;stroke-dasharray:none;stroke-opacity:1"
       id="path44" /><path
       d="m 486.55061,580.40362 c 0,0 -10.49351,6.093 -17.94052,23.13014 -15.48653,35.42393 1.50619,66.58114 3.14561,76.26008 l 49.64312,149.17903"
       style="fill:none;stroke:#231f20;stroke-width:6.49921;stroke-linecap:round;stroke-linejoin:round;stroke-miterlimit:10;stroke-dasharray:none;stroke-opacity:1"
       id="path46" /><path
       d="m 573.52789,606.12965 c 0,0 89.99887,26.6148 122.40392,48.67419 18.95385,12.90743 31.80604,18.50108 36.67503,74.4701 3.80204,43.66872 10.18751,159.48028 10.18751,159.48028"
       style="fill:none;stroke:#231f20;stroke-width:7.58241;stroke-linecap:round;stroke-linejoin:round;stroke-miterlimit:10;stroke-dasharray:none;stroke-opacity:1"
       id="path48" /><path
       d="m 358.24595,722.95454 c 1.354,6.3194 16.92502,165.79968 16.92502,165.79968"
       style="fill:none;stroke:#231f20;stroke-width:7.58241;stroke-linecap:round;stroke-linejoin:round;stroke-miterlimit:10;stroke-dasharray:none;stroke-opacity:1"
       id="path50" /><path
       d="m 682.75791,722.95454 c -1.354,6.3194 -19.86591,165.79968 -19.86591,165.79968"
       style="fill:none;stroke:#231f20;stroke-width:7.58241;stroke-linecap:round;stroke-linejoin:round;stroke-miterlimit:10;stroke-dasharray:none;stroke-opacity:1"
       id="path52" /><path
       d="m 520.85939,642.12064 c 29.43274,-27.92439 37.56325,-50.4344 33.59224,-61.71702 0,0 10.49351,6.093 17.94052,23.13014 15.48653,35.42393 -1.50836,66.58114 -3.14832,76.26008 0,0 -31.37872,-38.39461 -48.38444,-37.6732"
       style="fill:#ffffff;fill-opacity:1;fill-rule:nonzero;stroke:none;stroke-width:0.541601"
       id="path54" /><path
       d="m 520.85939,642.12064 c 29.43274,-27.92439 37.56325,-50.4344 33.59224,-61.71702 0,0 10.49351,6.093 17.94052,23.13014 15.48653,35.42393 -1.50836,66.58114 -3.14832,76.26008 0,0 -31.37872,-38.39461 -48.38444,-37.6732 z"
       style="fill:none;stroke:#231f20;stroke-width:5.41601;stroke-linecap:round;stroke-linejoin:round;stroke-miterlimit:10;stroke-dasharray:none;stroke-opacity:1"
       id="path56" /><path
       d="m 554.45163,580.40362 c 0,0 10.49351,6.093 17.94052,23.13014 15.48653,35.42393 0.36396,64.77815 -3.14832,76.26008 L 505.902,881.16124"
       style="fill:none;stroke:#231f20;stroke-width:6.49921;stroke-linecap:round;stroke-linejoin:round;stroke-miterlimit:10;stroke-dasharray:none;stroke-opacity:1"
       id="path58" /><path
       d="m 539.98493,873.84964 c 0,4.04082 -3.27939,7.3116 -7.31377,7.3116 -4.03655,0 -7.31595,-3.27078 -7.31595,-7.3116 0,-4.04089 3.2794,-7.31161 7.31595,-7.31161 4.03438,0 7.31377,3.27072 7.31377,7.31161"
       style="fill:#e0e6e8;fill-opacity:1;fill-rule:nonzero;stroke:none;stroke-width:0.541601"
       id="path60" /><path
       d="m 539.98493,873.84964 c 0,4.04082 -3.27939,7.3116 -7.31377,7.3116 -4.03655,0 -7.31595,-3.27078 -7.31595,-7.3116 0,-4.04089 3.2794,-7.31161 7.31595,-7.31161 4.03438,0 7.31377,3.27072 7.31377,7.31161 z"
       style="fill:none;stroke:#231f20;stroke-width:5.41601;stroke-linecap:butt;stroke-linejoin:miter;stroke-miterlimit:10;stroke-dasharray:none;stroke-opacity:1"
       id="path62" /><path
       d="m 272.50623,610.19165 c 11.96396,-4.01976 12.96213,4.09396 12.96213,4.09396 0,0 20.04789,121.27198 19.72834,119.8037"
       style="fill:none;stroke:#231f20;stroke-width:7.58241;stroke-linecap:round;stroke-linejoin:round;stroke-miterlimit:10;stroke-dasharray:none;stroke-opacity:1"
       id="path64" /><path
       d="m 221.65047,629.48618 c 0,0 -19.55883,9.14601 -18.19849,20.42863 -0.14807,1.15307 23.43468,118.56614 28.51869,132.77883 9.86525,27.57722 27.39741,29.09804 43.48674,24.11152 34.56279,-10.7199 86.92691,-44.08738 86.92691,-44.08738"
       style="fill:none;stroke:#231f20;stroke-width:7.58241;stroke-linecap:round;stroke-linejoin:round;stroke-miterlimit:10;stroke-dasharray:none;stroke-opacity:1"
       id="path66" /><path
       d="m 222.34047,655.94229 -4.25482,-41.4877 c 0,0 -31.54179,-10.70528 -37.68977,-52.71074 0,0 -15.96243,-22.87017 -16.6754,-32.183 -0.7997,-10.33482 11.32287,-19.11471 21.75924,-16.00484 0,0 6.56268,-19.51225 24.42917,-17.11512 0,0 8.7124,-15.99022 26.23373,-9.59012 0,0 -3.49495,-56.17429 -3.30052,-74.22042 0.19715,-18.04668 20.90254,-17.63398 23.39878,-3.70888 1.84306,10.27741 18.12683,117.63946 18.12683,117.63946 l 0.1966,1.68167 c 9.68328,5.64456 13.72037,11.87513 10.90405,29.36071 -2.77137,17.14112 -15.30455,38.30796 -15.30455,38.30796 l 2.708,39.06078 -26.85744,15.09929 -23.6739,5.87095"
       style="fill:#fcd0b4;fill-opacity:1;fill-rule:nonzero;stroke:none;stroke-width:0.541601"
       id="path68" /><path
       d="m 183.93107,564.99129 c 0,0 8.63598,8.60007 16.39403,5.90886 7.75377,-2.69338 10.08304,-10.36245 10.08304,-10.36245 0,0 8.72713,1.58256 13.54846,-2.02017 4.8235,-3.60706 11.62113,-12.74061 11.62113,-12.74061 l 8.29732,6.7321 c 0,0 -18.04613,19.37901 -18.30827,28.38745 0,0 -33.30649,0.35963 -37.39384,1.17853 -4.09586,0.83135 -4.24187,-17.08371 -4.24187,-17.08371"
       style="fill:#da907b;fill-opacity:1;fill-rule:nonzero;stroke:none;stroke-width:0.541601"
       id="path70" /><path
       d="m 222.34047,655.94229 -4.25482,-41.4877 c 0,0 -31.54179,-10.70528 -37.68977,-52.71074 0,0 -15.96243,-22.87017 -16.6754,-32.183 -0.7997,-10.33482 11.32287,-19.11471 21.75924,-16.00484 0,0 6.56268,-19.51225 24.42917,-17.11512 0,0 8.7124,-15.99022 26.23373,-9.59012 0,0 -3.49495,-56.17429 -3.30052,-74.22042 0.19715,-18.04668 20.90254,-17.63398 23.39878,-3.70888 1.84306,10.27741 18.12683,117.63946 18.12683,117.63946 l 0.1966,1.68167 c 9.68328,5.64456 13.72037,11.87513 10.90405,29.36071 -2.77137,17.14112 -15.30455,38.30796 -15.30455,38.30796 l 2.708,39.06078"
       style="fill:none;stroke:#231f20;stroke-width:7.58241;stroke-linecap:round;stroke-linejoin:round;stroke-miterlimit:10;stroke-dasharray:none;stroke-opacity:1"
       id="path72" /><path
       d="m 274.56431,528.2426 c -18.81412,-10.95875 -47.26278,-14.70338 -50.18472,-3.91361 -2.91706,10.78977 16.16353,26.46207 28.21198,30.15416"
       style="fill:none;stroke:#231f20;stroke-width:6.49921;stroke-linecap:round;stroke-linejoin:round;stroke-miterlimit:10;stroke-dasharray:none;stroke-opacity:1"
       id="path74" /><path
       d="m 243.80735,551.7264 c 0,0 -24.28321,22.04044 -18.30394,42.2806"
       style="fill:none;stroke:#231f20;stroke-width:6.49921;stroke-linecap:round;stroke-linejoin:round;stroke-miterlimit:10;stroke-dasharray:none;stroke-opacity:1"
       id="path76" /><path
       d="m 236.14262,486.85077 9.24512,30.44391"
       style="fill:none;stroke:#231f20;stroke-width:6.49921;stroke-linecap:round;stroke-linejoin:round;stroke-miterlimit:10;stroke-dasharray:none;stroke-opacity:1"
       id="path78" /><path
       d="m 209.92579,496.22912 14.10718,28.17407"
       style="fill:none;stroke:#231f20;stroke-width:6.49921;stroke-linecap:round;stroke-linejoin:round;stroke-miterlimit:10;stroke-dasharray:none;stroke-opacity:1"
       id="path80" /><path
       d="m 180.08061,561.49634 c 0,0 9.22205,8.879 15.46525,9.56683 8.63176,0.95214 14.79886,-3.43158 14.83054,-11.67853 0,0 14.49226,5.24269 23.91069,-11.13206"
       style="fill:none;stroke:#231f20;stroke-width:6.49921;stroke-linecap:round;stroke-linejoin:round;stroke-miterlimit:10;stroke-dasharray:none;stroke-opacity:1"
       id="path82" /><path
       d="m 185.47972,513.55601 c 0,0 14.24242,37.34499 26.48341,45.51125"
       style="fill:none;stroke:#231f20;stroke-width:6.49921;stroke-linecap:round;stroke-linejoin:round;stroke-miterlimit:10;stroke-dasharray:none;stroke-opacity:1"
       id="path84" /><path
       d="m 203.45198,649.91481 c 0,0 3.72984,7.44701 23.02848,5.61478 24.08011,-2.28501 57.32952,-23.64629 58.9879,-36.55805"
       style="fill:none;stroke:#231f20;stroke-width:7.58241;stroke-linecap:round;stroke-linejoin:round;stroke-miterlimit:10;stroke-dasharray:none;stroke-opacity:1"
       id="path86" /><path
       d="m 441.1531,850.08479 c 1.18502,4.4407 -2.43287,9.30449 -8.10289,10.86375 -5.65918,1.5486 -11.21276,-0.80184 -12.40374,-5.24892 -1.18881,-4.43435 2.43937,-9.29392 8.09856,-10.84257 5.65918,-1.54866 11.21709,0.80184 12.40807,5.22774"
       style="fill:#c4c4c4;fill-opacity:1;fill-rule:nonzero;stroke:none;stroke-width:0.541601"
       id="path88" /><path
       d="m 441.1531,850.08479 c 1.18502,4.4407 -2.43287,9.30449 -8.10289,10.86375 -5.65918,1.5486 -11.21276,-0.80184 -12.40374,-5.24892 -1.18881,-4.43435 2.43937,-9.29392 8.09856,-10.84257 5.65918,-1.54866 11.21709,0.80184 12.40807,5.22774 z"
       style="fill:none;stroke:#231f20;stroke-width:4.06201;stroke-linecap:butt;stroke-linejoin:miter;stroke-miterlimit:10;stroke-dasharray:none;stroke-opacity:1"
       id="path90" /><path
       d="m 462.46184,844.38103 c 1.19098,4.44703 6.74455,6.77424 12.40428,5.22558 5.65918,-1.55282 9.28736,-6.39549 8.09205,-10.84257 -1.18502,-4.43419 -6.73805,-6.78474 -12.40211,-5.22547 -5.65485,1.54193 -9.28304,6.406 -8.09422,10.84246"
       style="fill:#c4c4c4;fill-opacity:1;fill-rule:nonzero;stroke:none;stroke-width:0.541601"
       id="path92" /><path
       d="m 462.46184,844.38103 c 1.19098,4.44703 6.74455,6.77424 12.40428,5.22558 5.65918,-1.55282 9.28736,-6.39549 8.09205,-10.84257 -1.18502,-4.43419 -6.73805,-6.78474 -12.40211,-5.22547 -5.65485,1.54193 -9.28304,6.406 -8.09422,10.84246 z"
       style="fill:none;stroke:#231f20;stroke-width:4.06201;stroke-linecap:butt;stroke-linejoin:miter;stroke-miterlimit:10;stroke-dasharray:none;stroke-opacity:1"
       id="path94" /><path
       d="m 341.74446,353.85801 c 0,0 -33.537,-131.51635 39.00121,-183.2663 0,0 11.23388,-24.37203 62.36477,-53.29892 65.68588,-37.153806 156.5773,-21.896915 170.5089,23.21842 0,0 38.65891,6.30965 64.35732,43.12766 24.54968,35.16072 35.15963,69.64444 23.00341,169.16573 l 0.17331,46.08859 -351.15168,26.52598 -8.25724,-71.56116"
       style="fill:#3e3d54;fill-opacity:1;fill-rule:nonzero;stroke:none;stroke-width:0.541601"
       id="path108" /><path
       d="m 380.74567,186.70433 c 0,0 11.23388,-24.37203 62.36477,-53.2935 65.68588,-37.159226 156.5773,-21.89692 170.5089,23.21842 0,0 38.65891,6.30965 64.35732,43.12766 16.64989,23.84126 26.87314,47.40089 27.94551,91.10807 1.22944,-54.34963 -9.35994,-80.60643 -27.94551,-107.22611 -25.69841,-36.81801 -64.35732,-43.12766 -64.35732,-43.12766 -13.9316,-45.115335 -104.82302,-60.372226 -170.5089,-23.21842 -51.13089,28.92689 -62.36477,53.29892 -62.36477,53.29892 -40.33192,28.77525 -47.85313,82.20415 -46.60095,123.97782 1.14657,-38.61072 11.30158,-82.67535 46.60095,-107.8652"
       style="fill:#c4c4c4;fill-opacity:1;fill-rule:nonzero;stroke:none;stroke-width:0.541601"
       id="path110" /><path
       d="m 700.98007,368.92101 0.10994,29.97868 0.0634,-0.007 -0.11644,-30.47966 c -0.0211,0.16898 -0.0358,0.3385 -0.0569,0.50748"
       style="fill:#644a3f;fill-opacity:1;fill-rule:nonzero;stroke:none;stroke-width:0.541601"
       id="path112" /><path
       d="m 680.34616,370.73429 c 0,0 32.68723,-26.20752 44.96532,14.88968 14.10328,47.21458 -33.17088,98.68777 -54.62314,102.71403"
       style="fill:#fcd0b4;fill-opacity:1;fill-rule:nonzero;stroke:none;stroke-width:0.541601"
       id="path114" /><path
       d="m 680.34616,370.73429 c 0,0 32.68723,-26.20752 44.96532,14.88968 14.10328,47.21458 -33.17088,98.68777 -54.62314,102.71403"
       style="fill:none;stroke:#231f20;stroke-width:7.58241;stroke-linecap:round;stroke-linejoin:round;stroke-miterlimit:10;stroke-dasharray:none;stroke-opacity:1"
       id="path116" /><path
       d="m 701.86017,431.32586 c -6.72127,15.29156 -19.45538,24.46736 -28.4492,20.51746 -8.99545,-3.95206 -10.83581,-19.55503 -4.10858,-34.84442 6.72776,-15.28126 19.46404,-24.46302 28.45515,-20.50663 8.99328,3.95206 10.82389,19.5545 4.10263,34.83359"
       style="fill:#e59686;fill-opacity:1;fill-rule:nonzero;stroke:none;stroke-width:0.541601"
       id="path118" /><path
       d="m 711.14862,385.00005 c 0,0 -17.35776,-7.63332 -30.80246,21.99603"
       style="fill:none;stroke:#231f20;stroke-width:7.58241;stroke-linecap:round;stroke-linejoin:round;stroke-miterlimit:10;stroke-dasharray:none;stroke-opacity:1"
       id="path120" /><path
       d="m 360.69182,370.73429 c 0,0 -32.68885,-26.20752 -44.96748,14.88968 -14.10274,47.21458 33.17304,98.68777 54.6253,102.71403"
       style="fill:#fcd0b4;fill-opacity:1;fill-rule:nonzero;stroke:none;stroke-width:0.541601"
       id="path122" /><path
       d="m 360.69182,370.73429 c 0,0 -32.68885,-26.20752 -44.96748,14.88968 -14.10274,47.21458 33.17304,98.68777 54.6253,102.71403"
       style="fill:none;stroke:#231f20;stroke-width:7.58241;stroke-linecap:round;stroke-linejoin:round;stroke-miterlimit:10;stroke-dasharray:none;stroke-opacity:1"
       id="path124" /><path
       d="m 333.72173,430.4436 c 6.72126,15.27909 19.45971,24.46735 28.44866,20.51529 8.99382,-3.95639 10.83201,-19.54854 4.10479,-34.83792 -6.71747,-15.28127 -19.46188,-24.46736 -28.4492,-20.50663 -8.99111,3.95152 -10.82118,19.5377 -4.10425,34.82926"
       style="fill:#e59686;fill-opacity:1;fill-rule:nonzero;stroke:none;stroke-width:0.541601"
       id="path126" /><path
       d="m 329.88178,385.00005 c 0,0 17.36534,-7.63332 30.81004,21.99603"
       style="fill:none;stroke:#231f20;stroke-width:7.58241;stroke-linecap:round;stroke-linejoin:round;stroke-miterlimit:10;stroke-dasharray:none;stroke-opacity:1"
       id="path128" /><path
       d="m 652.84964,219.50909 c 40.55018,108.66676 34.97549,254.07246 -6.27336,309.22691 -31.84612,42.58118 -74.75119,66.98463 -126.05539,66.98463 -51.31017,0 -94.21523,-24.40345 -126.05973,-66.98463 -43.2896,-57.87979 -46.88853,-218.08635 0.44466,-326.27109 l 0.89905,-1.14819 c 40.27072,-27.85994 101.70882,-29.70138 101.70882,-29.70138 0,0 -38.2083,18.51733 -32.69697,24.56701 5.72255,6.28256 42.33367,9.40218 76.04615,-0.23289 48.65524,-13.90289 60.81363,-33.77964 60.81363,-33.77964 0,0 3.08279,41.02625 52.7427,58.01627"
       style="fill:#fcd0b4;fill-opacity:1;fill-rule:nonzero;stroke:none;stroke-width:0.541601"
       id="path130" /><path
       d="m 652.84964,219.50909 c 40.55018,108.66676 34.97549,254.07246 -6.27336,309.22691 -31.84612,42.58118 -74.75119,66.98463 -126.05539,66.98463 -51.31017,0 -94.21523,-24.40345 -126.05973,-66.98463 -43.2896,-57.87979 -46.88853,-218.08635 0.44466,-326.27109 l 0.89905,-1.14819 c 40.27072,-27.85994 101.70882,-29.70138 101.70882,-29.70138 0,0 -38.2083,18.51733 -32.69697,24.56701 5.72255,6.28256 42.33367,9.40218 76.04615,-0.23289 48.65524,-13.90289 60.81363,-33.77964 60.81363,-33.77964 0,0 3.08279,41.02625 52.7427,58.01627"
       style="fill:none;stroke:#231f20;stroke-width:7.58241;stroke-linecap:round;stroke-linejoin:round;stroke-miterlimit:10;stroke-dasharray:none;stroke-opacity:1"
       id="path132" /><path
       d="m 361.50639,362.42613 h 34.70685"
       style="fill:none;stroke:#231f20;stroke-width:7.58241;stroke-linecap:round;stroke-linejoin:round;stroke-miterlimit:10;stroke-dasharray:none;stroke-opacity:1"
       id="path134" /><path
       d="m 423.74172,398.88886 c 0,7.82829 -12.50339,14.17477 -27.93035,14.17477 -15.42533,0 -27.94984,-6.34648 -27.94984,-14.17477 0,-7.82776 12.52451,-14.15961 27.94984,-14.15961 15.42696,0 27.93035,6.33185 27.93035,14.15961"
       style="fill:#f6807f;fill-opacity:1;fill-rule:nonzero;stroke:none;stroke-width:0.541601"
       id="path136" /><path
       d="m 668.78407,398.88886 c 0,7.82829 -12.50718,14.17477 -27.93684,14.17477 -15.42262,0 -27.94064,-6.34648 -27.94064,-14.17477 0,-7.82776 12.51802,-14.15961 27.94064,-14.15961 15.42966,0 27.93684,6.33185 27.93684,14.15961"
       style="fill:#f6807f;fill-opacity:1;fill-rule:nonzero;stroke:none;stroke-width:0.541601"
       id="path138" /><path
       d="m 475.95528,359.21065 c 0,19.82313 -12.66209,35.88538 -28.27535,35.88538 -15.61327,0 -28.26452,-16.06225 -28.26452,-35.88538 0,-19.82367 12.65125,-35.89296 28.26452,-35.89296 15.61326,0 28.27535,16.06929 28.27535,35.89296"
       style="fill:#ffffff;fill-opacity:1;fill-rule:nonzero;stroke:none;stroke-width:0.541601"
       id="path140" /><path
       d="m 469.92563,361.02989 c 0,10.66682 -6.59398,19.33677 -14.73532,19.33677 -8.1408,0 -14.74562,-8.66995 -14.74562,-19.33677 0,-10.68091 6.60482,-19.32486 14.74562,-19.32486 8.14134,0 14.73532,8.64395 14.73532,19.32486"
       style="fill:#231f20;fill-opacity:1;fill-rule:nonzero;stroke:none;stroke-width:0.541601"
       id="path142" /><path
       d="m 418.81207,352.5143 c 0,0 3.00426,-21.89583 23.45835,-27.98343 23.93171,-7.11663 30.0675,17.03876 30.0675,17.03876 0,0 -12.46114,-9.26679 -27.31292,-5.481 -13.99496,3.56915 -26.21293,16.42567 -26.21293,16.42567"
       style="fill:#deedfa;fill-opacity:1;fill-rule:nonzero;stroke:none;stroke-width:0.541601"
       id="path144" /><path
       d="m 472.33792,341.56963 c 0,0 -6.13579,-24.15539 -30.0675,-17.03876 -20.45409,6.0876 -23.45835,27.98343 -23.45835,27.98343"
       style="fill:none;stroke:#231f20;stroke-width:7.58241;stroke-linecap:round;stroke-linejoin:round;stroke-miterlimit:10;stroke-dasharray:none;stroke-opacity:1"
       id="path146" /><path
       d="m 470.26034,350.73893 c 0,2.51628 -2.02287,4.55757 -4.51261,4.55757 -2.49028,0 -4.51262,-2.04129 -4.51262,-4.55757 0,-2.51303 2.02234,-4.55486 4.51262,-4.55486 2.48974,0 4.51261,2.04183 4.51261,4.55486"
       style="fill:#ffffff;fill-opacity:1;fill-rule:nonzero;stroke:none;stroke-width:0.541601"
       id="path148" /><path
       d="m 565.08704,359.21065 c 0,19.82313 12.65125,35.88538 28.26452,35.88538 15.61976,0 28.26884,-16.06225 28.26884,-35.88538 0,-19.82367 -12.64908,-35.89296 -28.26884,-35.89296 -15.61327,0 -28.26452,16.06929 -28.26452,35.89296"
       style="fill:#ffffff;fill-opacity:1;fill-rule:nonzero;stroke:none;stroke-width:0.541601"
       id="path150" /><path
       d="m 571.10585,361.02989 c 0,10.66682 6.60049,19.33677 14.73533,19.33677 8.14513,0 14.74562,-8.66995 14.74562,-19.33677 0,-10.68091 -6.60049,-19.32486 -14.74562,-19.32486 -8.13484,0 -14.73533,8.64395 -14.73533,19.32486"
       style="fill:#231f20;fill-opacity:1;fill-rule:nonzero;stroke:none;stroke-width:0.541601"
       id="path152" /><path
       d="m 622.22591,352.5143 c 0,0 -3.01076,-21.89583 -23.45835,-27.98343 -23.93821,-7.11663 -30.07346,17.03876 -30.07346,17.03876 0,0 12.46115,-9.26679 27.31238,-5.481 14.00146,3.56915 26.21943,16.42567 26.21943,16.42567"
       style="fill:#deedfa;fill-opacity:1;fill-rule:nonzero;stroke:none;stroke-width:0.541601"
       id="path154" /><path
       d="m 568.6941,341.56963 c 0,0 6.13525,-24.15539 30.07346,-17.03876 20.44759,6.0876 23.45835,27.98343 23.45835,27.98343"
       style="fill:none;stroke:#231f20;stroke-width:7.58241;stroke-linecap:round;stroke-linejoin:round;stroke-miterlimit:10;stroke-dasharray:none;stroke-opacity:1"
       id="path156" /><path
       d="m 590.3473,350.73893 c 0,2.51628 2.02071,4.55757 4.51695,4.55757 2.48594,0 4.50611,-2.04129 4.50611,-4.55757 0,-2.51303 -2.02017,-4.55486 -4.50611,-4.55486 -2.49624,0 -4.51695,2.04183 -4.51695,4.55486"
       style="fill:#ffffff;fill-opacity:1;fill-rule:nonzero;stroke:none;stroke-width:0.541601"
       id="path158" /><path
       d="m 504.72781,359.16191 c 0,0 17.36968,-4.90203 30.29173,1.86798"
       style="fill:none;stroke:#231f20;stroke-width:7.58241;stroke-linecap:round;stroke-linejoin:round;stroke-miterlimit:10;stroke-dasharray:none;stroke-opacity:1"
       id="path160" /><path
       d="m 340.86598,359.2361 c 0,0 -32.65852,-136.89444 39.87969,-188.64439 0,0 11.23388,-24.37203 62.36477,-53.29892 65.68588,-37.153806 156.5773,-21.896915 170.5089,23.21842 0,0 38.65891,6.30965 64.35732,43.12766 24.54968,35.16072 35.15963,79.08454 23.00341,178.60095"
       style="fill:none;stroke:#231f20;stroke-width:7.58241;stroke-linecap:round;stroke-linejoin:round;stroke-miterlimit:10;stroke-dasharray:none;stroke-opacity:1"
       id="path162" /><path
       d="m 492.99674,285.73602 c -2.32726,-5.42142 -7.62032,-11.70941 -14.76728,-16.55132 -7.09768,-4.9069 -16.04655,-8.42189 -24.76307,-9.5755 -8.71652,-1.23485 -16.99922,0.005 -22.4683,1.84686 -11.17431,3.59623 -18.96632,11.26529 -22.75319,17.30956 -3.88219,6.15258 -4.49583,10.73994 -2.95172,11.7419 3.40233,2.29639 13.6987,-10.62621 30.0063,-15.84724 4.04521,-1.35941 10.05319,-2.64301 16.95048,-2.31805 6.86912,0.2708 14.50244,2.19349 21.03956,5.31311 6.56907,3.07087 11.92821,7.27911 15.11661,10.92408 2.39063,2.83799 5.70143,1.33776 4.59061,-2.8434"
       style="fill:#291d16;fill-opacity:1;fill-rule:nonzero;stroke:none;stroke-width:0.541601"
       id="path164" /><path
       d="m 492.99674,285.73602 c -2.32726,-5.42142 -7.62032,-11.70941 -14.76728,-16.55132 -7.09768,-4.9069 -16.04655,-8.42189 -24.76307,-9.5755 -8.71652,-1.23485 -16.99922,0.005 -22.4683,1.84686 -11.17431,3.59623 -18.96632,11.26529 -22.75319,17.30956 -3.88219,6.15258 -4.49583,10.73994 -2.95172,11.7419 3.40233,2.29639 13.6987,-10.62621 30.0063,-15.84724 4.04521,-1.35941 10.05319,-2.64301 16.95048,-2.31805 6.86912,0.2708 14.50244,2.19349 21.03956,5.31311 6.56907,3.07087 11.92821,7.27911 15.11661,10.92408 2.39063,2.83799 5.70143,1.33776 4.59061,-2.8434 z"
       style="fill:none;stroke:#291d16;stroke-width:4.06201;stroke-linecap:butt;stroke-linejoin:miter;stroke-miterlimit:10;stroke-dasharray:none;stroke-opacity:1"
       id="path166" /><path
       d="m 548.04124,285.73602 c 2.32726,-5.42142 7.62032,-11.70941 14.76079,-16.55132 7.09767,-4.9069 16.04708,-8.42189 24.76306,-9.5755 8.72302,-1.23485 16.99922,0.005 22.47481,1.84686 11.1743,3.59623 18.95981,11.26529 22.74723,17.30956 3.88598,6.15258 4.49528,10.73994 2.95118,11.7419 -3.39584,2.29639 -13.69871,-10.62621 -29.99981,-15.84724 -4.05117,-1.35941 -10.05319,-2.64301 -16.95264,-2.31805 -6.86912,0.2708 -14.49594,2.19349 -21.03739,5.31311 -6.57558,3.07087 -11.92822,7.27911 -15.11824,10.92408 -2.39496,2.83799 -5.70631,1.33776 -4.58899,-2.8434"
       style="fill:#291d16;fill-opacity:1;fill-rule:nonzero;stroke:none;stroke-width:0.541601"
       id="path168" /><path
       d="m 548.04124,285.73602 c 2.32726,-5.42142 7.62032,-11.70941 14.76079,-16.55132 7.09767,-4.9069 16.04708,-8.42189 24.76306,-9.5755 8.72302,-1.23485 16.99922,0.005 22.47481,1.84686 11.1743,3.59623 18.95981,11.26529 22.74723,17.30956 3.88598,6.15258 4.49528,10.73994 2.95118,11.7419 -3.39584,2.29639 -13.69871,-10.62621 -29.99981,-15.84724 -4.05117,-1.35941 -10.05319,-2.64301 -16.95264,-2.31805 -6.86912,0.2708 -14.49594,2.19349 -21.03739,5.31311 -6.57558,3.07087 -11.92822,7.27911 -15.11824,10.92408 -2.39496,2.83799 -5.70631,1.33776 -4.58899,-2.8434 z"
       style="fill:none;stroke:#291d16;stroke-width:4.06201;stroke-linecap:butt;stroke-linejoin:miter;stroke-miterlimit:10;stroke-dasharray:none;stroke-opacity:1"
       id="path170" /><path
       d="m 511.07483,383.38554 c 0,0 4.03005,15.28126 1.34317,31.0153"
       style="fill:none;stroke:#231f20;stroke-width:7.58241;stroke-linecap:round;stroke-linejoin:round;stroke-miterlimit:10;stroke-dasharray:none;stroke-opacity:1"
       id="path172" /><path
       d="m 519.39977,405.70544 c 0,0 -16.22689,20.28457 -16.63526,27.58373 -0.4062,7.29915 13.33475,19.46783 13.33475,19.46783"
       style="fill:none;stroke:#231f20;stroke-width:7.58241;stroke-linecap:round;stroke-linejoin:round;stroke-miterlimit:10;stroke-dasharray:none;stroke-opacity:1"
       id="path174" /><path
       d="m 505.14051,362.76897 c 0,30.07996 -24.38286,54.45632 -54.46661,54.45632 -30.07401,0 -54.46066,-24.37636 -54.46066,-54.45632 0,-30.08159 24.38665,-54.46445 54.46066,-54.46445 30.08375,0 54.46661,24.38286 54.46661,54.46445 z"
       style="fill:none;stroke:#231f20;stroke-width:8.66561;stroke-linecap:round;stroke-linejoin:round;stroke-miterlimit:10;stroke-dasharray:none;stroke-opacity:1"
       id="path176" /><path
       d="M 679.5316,362.42613 H 644.82474"
       style="fill:none;stroke:#231f20;stroke-width:7.58241;stroke-linecap:round;stroke-linejoin:round;stroke-miterlimit:10;stroke-dasharray:none;stroke-opacity:1"
       id="path178" /><path
       d="m 535.9018,362.76897 c 0,30.07996 24.38233,54.45632 54.45633,54.45632 30.08429,0 54.46661,-24.37636 54.46661,-54.45632 0,-30.08159 -24.38232,-54.46445 -54.46661,-54.46445 -30.074,0 -54.45633,24.38286 -54.45633,54.46445 z"
       style="fill:none;stroke:#231f20;stroke-width:8.66561;stroke-linecap:round;stroke-linejoin:round;stroke-miterlimit:10;stroke-dasharray:none;stroke-opacity:1"
       id="path180" /><path
       d="m 518.50722,480.88882 c 40.17973,0 60.86454,-7.95286 60.86454,-7.95286 0.35096,18.88182 -5.28711,94.06521 -58.85087,94.06521 -53.56106,0 -59.20562,-75.18339 -58.8525,-94.06521 0,0 16.67318,7.95286 56.83883,7.95286"
       style="fill:#eb4b7c;fill-opacity:1;fill-rule:nonzero;stroke:none;stroke-width:0.541601"
       id="path182" /><path
       d="m 521.21522,494.08601 c 20.6144,0 39.5623,6.63244 54.81595,16.43433 2.88131,-14.19156 3.4527,-31.19945 3.34059,-37.58438 0,0 -20.68481,7.95286 -60.86454,7.95286 -40.16565,0 -56.83883,-7.95286 -56.83883,-7.95286 -0.12457,6.51437 0.47174,23.86455 3.50145,38.37133 14.64001,-10.98421 34.87854,-17.22128 56.04538,-17.22128"
       style="fill:#c2434f;fill-opacity:1;fill-rule:nonzero;stroke:none;stroke-width:0.541601"
       id="path184" /><path
       d="m 518.50722,480.88882 c 40.17973,0 60.86454,-7.95286 60.86454,-7.95286 0.35096,18.88182 -5.28711,94.06521 -58.85087,94.06521 -53.56106,0 -59.20562,-75.18339 -58.8525,-94.06521 0,0 16.67318,7.95286 56.83883,7.95286 z"
       style="fill:none;stroke:#231f20;stroke-width:6.49921;stroke-linecap:round;stroke-linejoin:round;stroke-miterlimit:10;stroke-dasharray:none;stroke-opacity:1"
       id="path186" /></g></svg>
