<?xml version="1.0" encoding="UTF-8" standalone="no"?>
<svg
   xmlns:dc="http://purl.org/dc/elements/1.1/"
   xmlns:cc="http://creativecommons.org/ns#"
   xmlns:rdf="http://www.w3.org/1999/02/22-rdf-syntax-ns#"
   xmlns:svg="http://www.w3.org/2000/svg"
   xmlns="http://www.w3.org/2000/svg"
   width="151.55334mm"
   height="10.509217mm"
   viewBox="0 0 151.55334 10.509217"
   version="1.1"
   id="svg8">
  <defs
     id="defs2">
    <rect
       x="18.668503"
       y="16.949224"
       width="156.58775"
       height="16.526804"
       id="rect835" />
  </defs>
  <metadata
     id="metadata5">
    <rdf:RDF>
      <cc:Work
         rdf:about="">
        <dc:format>image/svg+xml</dc:format>
        <dc:type
           rdf:resource="http://purl.org/dc/dcmitype/StillImage" />
        <dc:title></dc:title>
      </cc:Work>
    </rdf:RDF>
  </metadata>
  <g
     transform="translate(-19.027801,-18.347204)"
     style="opacity:1"
     id="layer2" />
  <g
     transform="translate(-19.027801,-18.347204)"
     style="opacity:1"
     id="layer1">
    <g
       style="font-style:normal;font-weight:normal;font-size:10.5833px;line-height:1.25;font-family:sans-serif;letter-spacing:0px;word-spacing:0px;white-space:pre;shape-inside:url(#rect835);fill:#000000;fill-opacity:1;stroke:none"
       id="text833"
       aria-label="dxt90.business@gmail.com">
      <path
         id="path855"
         style="font-style:normal;font-variant:normal;font-weight:bold;font-stretch:normal;font-family:Montserrat;-inkscape-font-specification:'Montserrat Bold';fill:#ffffff;fill-opacity:1"
         d="m 25.229615,18.823453 v 7.852808 h -1.576912 v -0.656165 q -0.613831,0.740831 -1.777994,0.740831 -0.804331,0 -1.460496,-0.359832 -0.645581,-0.359832 -1.015997,-1.02658 -0.370415,-0.666748 -0.370415,-1.545162 0,-0.878414 0.370415,-1.545161 0.370416,-0.666748 1.015997,-1.026581 0.656165,-0.359832 1.460496,-0.359832 1.090079,0 1.703911,0.687915 v -2.762241 z m -3.069157,6.582812 q 0.624414,0 1.037163,-0.423332 0.412749,-0.433915 0.412749,-1.15358 0,-0.719664 -0.412749,-1.142996 -0.412749,-0.433915 -1.037163,-0.433915 -0.634998,0 -1.047747,0.433915 -0.412749,0.423332 -0.412749,1.142996 0,0.719665 0.412749,1.15358 0.412749,0.423332 1.047747,0.423332 z" />
      <path
         id="path857"
         style="font-style:normal;font-variant:normal;font-weight:bold;font-stretch:normal;font-family:Montserrat;-inkscape-font-specification:'Montserrat Bold';fill:#ffffff;fill-opacity:1"
         d="m 30.366814,26.676261 -1.248829,-1.746245 -1.291163,1.746245 h -1.799161 l 2.190743,-2.868074 -2.11666,-2.825741 h 1.852078 l 1.206496,1.661578 1.238246,-1.661578 h 1.756828 l -2.11666,2.783407 2.201326,2.910408 z" />
      <path
         id="path859"
         style="font-style:normal;font-variant:normal;font-weight:bold;font-stretch:normal;font-family:Montserrat;-inkscape-font-specification:'Montserrat Bold';fill:#ffffff;fill-opacity:1"
         d="m 36.724236,26.401095 q -0.243416,0.179916 -0.603248,0.275166 -0.349249,0.08467 -0.740831,0.08467 -1.015997,0 -1.576912,-0.518581 -0.550332,-0.518582 -0.550332,-1.523996 v -2.338909 h -0.878414 v -1.269996 h 0.878414 v -1.386412 h 1.650995 v 1.386412 h 1.418162 v 1.269996 h -1.418162 v 2.317743 q 0,0.359832 0.179916,0.560915 0.1905,0.190499 0.529165,0.190499 0.391582,0 0.666748,-0.211666 z" />
      <path
         id="path861"
         style="font-style:normal;font-variant:normal;font-weight:bold;font-stretch:normal;font-family:Montserrat;-inkscape-font-specification:'Montserrat Bold';fill:#ffffff;fill-opacity:1"
         d="m 39.832914,19.140952 q 1.555745,0 2.434159,0.952496 0.878413,0.941914 0.878413,2.719908 0,1.259413 -0.476248,2.158994 -0.465665,0.89958 -1.322912,1.365245 -0.857248,0.465665 -1.979078,0.465665 -0.592664,0 -1.132413,-0.126999 -0.539748,-0.137583 -0.920747,-0.380999 l 0.634998,-1.259413 q 0.539749,0.370416 1.386413,0.370416 0.941913,0 1.492245,-0.550332 0.550331,-0.560915 0.592665,-1.608661 -0.666748,0.666748 -1.841495,0.666748 -0.709081,0 -1.291162,-0.285749 -0.582082,-0.28575 -0.920747,-0.804331 -0.338666,-0.529165 -0.338666,-1.21708 0,-0.740831 0.370416,-1.301746 0.370415,-0.560914 1.005413,-0.857247 0.645582,-0.306915 1.428746,-0.306915 z m 0.126999,3.492488 q 0.560915,0 0.910164,-0.306915 0.359832,-0.317499 0.359832,-0.804331 0,-0.486832 -0.349249,-0.793748 -0.338665,-0.306915 -0.941913,-0.306915 -0.550332,0 -0.899581,0.296332 -0.338665,0.296333 -0.338665,0.804331 0,0.507998 0.338665,0.814914 0.349249,0.296332 0.920747,0.296332 z" />
      <path
         id="path863"
         style="font-style:normal;font-variant:normal;font-weight:bold;font-stretch:normal;font-family:Montserrat;-inkscape-font-specification:'Montserrat Bold';fill:#ffffff;fill-opacity:1"
         d="m 47.142998,26.80326 q -0.920747,0 -1.640411,-0.455081 -0.719665,-0.455082 -1.132413,-1.31233 -0.402166,-0.86783 -0.402166,-2.063743 0,-1.195913 0.402166,-2.05316 0.412748,-0.867831 1.132413,-1.322913 0.719664,-0.455081 1.640411,-0.455081 0.920747,0 1.640412,0.455081 0.719664,0.455082 1.121829,1.322913 0.412749,0.857247 0.412749,2.05316 0,1.195913 -0.412749,2.063743 -0.402165,0.857248 -1.121829,1.31233 -0.719665,0.455081 -1.640412,0.455081 z m 0,-1.449912 q 0.677331,0 1.05833,-0.582081 0.391582,-0.582082 0.391582,-1.799161 0,-1.217079 -0.391582,-1.799161 -0.380999,-0.582081 -1.05833,-0.582081 -0.666748,0 -1.05833,0.582081 -0.380998,0.582082 -0.380998,1.799161 0,1.217079 0.380998,1.799161 0.391582,0.582081 1.05833,0.582081 z" />
      <path
         id="path865"
         style="font-style:normal;font-variant:normal;font-weight:bold;font-stretch:normal;font-family:Montserrat;-inkscape-font-specification:'Montserrat Bold';fill:#ffffff;fill-opacity:1"
         d="m 51.990315,26.760927 q -0.433915,0 -0.730248,-0.296332 -0.296332,-0.296333 -0.296332,-0.740831 0,-0.455082 0.296332,-0.730248 0.296333,-0.285749 0.730248,-0.285749 0.433915,0 0.730248,0.285749 0.296332,0.275166 0.296332,0.730248 0,0.444498 -0.296332,0.740831 -0.296333,0.296332 -0.730248,0.296332 z" />
      <path
         id="path867"
         style="font-style:normal;font-variant:normal;font-weight:bold;font-stretch:normal;font-family:Montserrat;-inkscape-font-specification:'Montserrat Bold';fill:#ffffff;fill-opacity:1"
         d="m 57.501236,20.897779 q 0.793747,0 1.439328,0.370416 0.656165,0.359832 1.02658,1.02658 0.370416,0.656164 0.370416,1.534578 0,0.878414 -0.370416,1.545162 -0.370415,0.656165 -1.02658,1.02658 -0.645581,0.359832 -1.439328,0.359832 -1.174747,0 -1.788578,-0.740831 v 0.656165 h -1.576912 v -7.852808 h 1.650995 v 2.762241 q 0.624415,-0.687915 1.714495,-0.687915 z m -0.285749,4.508486 q 0.634998,0 1.037163,-0.423332 0.412749,-0.433915 0.412749,-1.15358 0,-0.719664 -0.412749,-1.142996 -0.402165,-0.433915 -1.037163,-0.433915 -0.634998,0 -1.047747,0.433915 -0.402166,0.423332 -0.402166,1.142996 0,0.719665 0.402166,1.15358 0.412749,0.423332 1.047747,0.423332 z" />
      <path
         id="path869"
         style="font-style:normal;font-variant:normal;font-weight:bold;font-stretch:normal;font-family:Montserrat;-inkscape-font-specification:'Montserrat Bold';fill:#ffffff;fill-opacity:1"
         d="m 67.168587,20.982446 v 5.693815 H 65.602258 V 25.99893 q -0.328082,0.370415 -0.783164,0.571498 -0.455082,0.190499 -0.984247,0.190499 -1.121829,0 -1.777994,-0.645581 -0.656165,-0.645581 -0.656165,-1.915577 v -3.217323 h 1.650995 v 2.973907 q 0,1.375829 1.15358,1.375829 0.592665,0 0.952497,-0.380999 0.359832,-0.391582 0.359832,-1.15358 v -2.815157 z" />
      <path
         id="path871"
         style="font-style:normal;font-variant:normal;font-weight:bold;font-stretch:normal;font-family:Montserrat;-inkscape-font-specification:'Montserrat Bold';fill:#ffffff;fill-opacity:1"
         d="m 70.624032,26.760927 q -0.709081,0 -1.386413,-0.169333 -0.677331,-0.179916 -1.079496,-0.444498 l 0.550331,-1.18533 q 0.380999,0.243416 0.920748,0.402166 0.539748,0.148166 1.05833,0.148166 1.047746,0 1.047746,-0.518582 0,-0.243416 -0.285749,-0.349249 -0.285749,-0.105833 -0.878414,-0.179916 -0.698498,-0.105833 -1.153579,-0.243416 -0.455082,-0.137583 -0.793748,-0.486831 -0.328082,-0.349249 -0.328082,-0.994831 0,-0.539748 0.306915,-0.952497 0.317499,-0.423332 0.910164,-0.656164 0.603248,-0.232833 1.418162,-0.232833 0.603248,0 1.195913,0.137583 0.603248,0.127 0.99483,0.359832 l -0.550331,1.174747 q -0.751414,-0.423332 -1.640412,-0.423332 -0.529165,0 -0.793747,0.148166 -0.264583,0.148166 -0.264583,0.380999 0,0.264582 0.28575,0.370415 0.285749,0.105833 0.910163,0.201083 0.698498,0.116416 1.142997,0.253999 0.444498,0.127 0.772581,0.476248 0.328082,0.349249 0.328082,0.973664 0,0.529165 -0.317499,0.941914 -0.317499,0.412748 -0.931331,0.645581 -0.603248,0.222249 -1.439328,0.222249 z" />
      <path
         id="path873"
         style="font-style:normal;font-variant:normal;font-weight:bold;font-stretch:normal;font-family:Montserrat;-inkscape-font-specification:'Montserrat Bold';fill:#ffffff;fill-opacity:1"
         d="m 74.330834,20.982446 h 1.650995 v 5.693815 h -1.650995 z m 0.825497,-0.793748 q -0.455082,0 -0.740831,-0.264582 -0.285749,-0.264583 -0.285749,-0.656165 0,-0.391582 0.285749,-0.656164 0.285749,-0.264583 0.740831,-0.264583 0.455082,0 0.740831,0.253999 0.285749,0.253999 0.285749,0.634998 0,0.412749 -0.285749,0.687915 -0.285749,0.264582 -0.740831,0.264582 z" />
      <path
         id="path875"
         style="font-style:normal;font-variant:normal;font-weight:bold;font-stretch:normal;font-family:Montserrat;-inkscape-font-specification:'Montserrat Bold';fill:#ffffff;fill-opacity:1"
         d="m 80.974831,20.897779 q 1.05833,0 1.703911,0.634998 0.656165,0.634998 0.656165,1.883828 v 3.259656 h -1.650995 v -3.005657 q 0,-0.677331 -0.296332,-1.005414 -0.296333,-0.338665 -0.857248,-0.338665 -0.624414,0 -0.99483,0.391582 -0.370415,0.380999 -0.370415,1.142996 v 2.815158 h -1.650995 v -5.693815 h 1.576911 v 0.666748 q 0.328083,-0.359833 0.814915,-0.550332 0.486831,-0.201083 1.068913,-0.201083 z" />
      <path
         id="path877"
         style="font-style:normal;font-variant:normal;font-weight:bold;font-stretch:normal;font-family:Montserrat;-inkscape-font-specification:'Montserrat Bold';fill:#ffffff;fill-opacity:1"
         d="m 90.470859,23.85052 q 0,0.03175 -0.03175,0.444498 h -4.307403 q 0.116416,0.529165 0.550331,0.836081 0.433916,0.306916 1.079497,0.306916 0.444498,0 0.783164,-0.127 0.349249,-0.137583 0.645581,-0.423332 l 0.878414,0.952497 q -0.804331,0.920747 -2.349492,0.920747 -0.963081,0 -1.703912,-0.370415 -0.740831,-0.380999 -1.142996,-1.047747 -0.402165,-0.666748 -0.402165,-1.513412 0,-0.83608 0.391582,-1.502828 0.402165,-0.677331 1.09008,-1.047747 0.698497,-0.380999 1.555745,-0.380999 0.83608,0 1.513412,0.359832 0.677331,0.359833 1.058329,1.037164 0.391583,0.666748 0.391583,1.555745 z m -2.952741,-1.703911 q -0.560915,0 -0.941914,0.317499 -0.380998,0.317499 -0.465665,0.86783 h 2.804575 q -0.08467,-0.539748 -0.465666,-0.857247 -0.380998,-0.328082 -0.93133,-0.328082 z" />
      <path
         id="path879"
         style="font-style:normal;font-variant:normal;font-weight:bold;font-stretch:normal;font-family:Montserrat;-inkscape-font-specification:'Montserrat Bold';fill:#ffffff;fill-opacity:1"
         d="m 93.485612,26.760927 q -0.709081,0 -1.386413,-0.169333 -0.677331,-0.179916 -1.079496,-0.444498 l 0.550331,-1.18533 q 0.380999,0.243416 0.920747,0.402166 0.539749,0.148166 1.05833,0.148166 1.047747,0 1.047747,-0.518582 0,-0.243416 -0.285749,-0.349249 -0.285749,-0.105833 -0.878414,-0.179916 -0.698498,-0.105833 -1.15358,-0.243416 -0.455081,-0.137583 -0.793747,-0.486831 -0.328082,-0.349249 -0.328082,-0.994831 0,-0.539748 0.306915,-0.952497 0.317499,-0.423332 0.910164,-0.656164 0.603248,-0.232833 1.418162,-0.232833 0.603248,0 1.195913,0.137583 0.603248,0.127 0.99483,0.359832 l -0.550331,1.174747 q -0.751415,-0.423332 -1.640412,-0.423332 -0.529165,0 -0.793747,0.148166 -0.264583,0.148166 -0.264583,0.380999 0,0.264582 0.285749,0.370415 0.28575,0.105833 0.910164,0.201083 0.698498,0.116416 1.142997,0.253999 0.444498,0.127 0.77258,0.476248 0.328083,0.349249 0.328083,0.973664 0,0.529165 -0.317499,0.941914 -0.317499,0.412748 -0.931331,0.645581 -0.603248,0.222249 -1.439328,0.222249 z" />
      <path
         id="path881"
         style="font-style:normal;font-variant:normal;font-weight:bold;font-stretch:normal;font-family:Montserrat;-inkscape-font-specification:'Montserrat Bold';fill:#ffffff;fill-opacity:1"
         d="m 99.107995,26.760927 q -0.709081,0 -1.386413,-0.169333 -0.677331,-0.179916 -1.079496,-0.444498 l 0.550331,-1.18533 q 0.380999,0.243416 0.920748,0.402166 0.539748,0.148166 1.05833,0.148166 1.047745,0 1.047745,-0.518582 0,-0.243416 -0.285748,-0.349249 -0.285749,-0.105833 -0.878414,-0.179916 -0.698498,-0.105833 -1.153579,-0.243416 -0.455082,-0.137583 -0.793748,-0.486831 -0.328082,-0.349249 -0.328082,-0.994831 0,-0.539748 0.306915,-0.952497 0.317499,-0.423332 0.910164,-0.656164 0.603248,-0.232833 1.418162,-0.232833 0.60325,0 1.19591,0.137583 0.60325,0.127 0.99483,0.359832 l -0.55033,1.174747 q -0.75141,-0.423332 -1.64041,-0.423332 -0.529165,0 -0.793747,0.148166 -0.264583,0.148166 -0.264583,0.380999 0,0.264582 0.28575,0.370415 0.285749,0.105833 0.910163,0.201083 0.698497,0.116416 1.142997,0.253999 0.4445,0.127 0.77258,0.476248 0.32808,0.349249 0.32808,0.973664 0,0.529165 -0.3175,0.941914 -0.3175,0.412748 -0.93133,0.645581 -0.603245,0.222249 -1.439325,0.222249 z" />
      <path
         id="path883"
         style="font-style:normal;font-variant:normal;font-weight:bold;font-stretch:normal;font-family:Montserrat;-inkscape-font-specification:'Montserrat Bold';fill:#ffffff;fill-opacity:1"
         d="m 107.58786,19.162118 q 1.4605,0 2.59291,0.603248 1.143,0.592665 1.77799,1.640412 0.635,1.047746 0.635,2.370659 0,0.93133 -0.27516,1.608661 -0.26459,0.666748 -0.75142,1.015997 -0.48683,0.349249 -1.14299,0.349249 -0.53975,0 -0.91017,-0.232833 -0.37041,-0.232832 -0.53975,-0.687914 -0.57149,0.920747 -1.80974,0.920747 -0.67733,0 -1.23825,-0.338666 -0.56091,-0.338665 -0.88899,-0.941913 -0.3175,-0.613832 -0.3175,-1.396996 0,-0.772581 0.3175,-1.375829 0.32808,-0.613831 0.87841,-0.952497 0.56091,-0.338665 1.24883,-0.338665 1.04775,0 1.62983,0.698497 v -0.624414 h 1.43933 v 3.428989 q 0,0.677331 0.50799,0.677331 0.37042,0 0.5715,-0.444499 0.21167,-0.444498 0.21167,-1.344079 0,-1.068913 -0.49742,-1.883827 -0.48683,-0.825497 -1.38641,-1.280579 -0.889,-0.465665 -2.05316,-0.465665 -1.16416,0 -2.06374,0.497415 -0.889,0.486831 -1.38641,1.354662 -0.48684,0.867831 -0.48684,1.968494 0,1.12183 0.48684,2.000243 0.48683,0.867831 1.36524,1.354663 0.889,0.497415 2.04258,0.497415 1.14299,0 2.08491,-0.465665 l 0.33866,0.973663 q -0.47624,0.243416 -1.13241,0.370416 -0.64558,0.137583 -1.29116,0.137583 -1.50283,0 -2.65641,-0.634998 -1.15358,-0.624415 -1.78858,-1.735662 -0.635,-1.111246 -0.635,-2.497658 0,-1.375829 0.635,-2.476492 0.64558,-1.100664 1.80975,-1.725078 1.16416,-0.624415 2.67757,-0.624415 z m -0.0953,6.371146 q 0.58208,0 0.9525,-0.380998 0.37041,-0.391582 0.37041,-1.079497 0,-0.677331 -0.37041,-1.05833 -0.37042,-0.380999 -0.9525,-0.380999 -0.59266,0 -0.9525,0.391582 -0.35983,0.380999 -0.35983,1.047747 0,0.677331 0.35983,1.068913 0.35984,0.391582 0.9525,0.391582 z" />
      <path
         id="path885"
         style="font-style:normal;font-variant:normal;font-weight:bold;font-stretch:normal;font-family:Montserrat;-inkscape-font-specification:'Montserrat Bold';fill:#ffffff;fill-opacity:1"
         d="m 119.64389,20.982446 v 4.741318 q 0,1.566328 -0.81491,2.328326 -0.81492,0.761997 -2.38124,0.761997 -0.8255,0 -1.56633,-0.201082 -0.74083,-0.201083 -1.22767,-0.582082 l 0.65617,-1.185329 q 0.35983,0.296332 0.91016,0.465665 0.55033,0.179916 1.10067,0.179916 0.85724,0 1.25941,-0.391582 0.41275,-0.380999 0.41275,-1.164163 v -0.243416 q -0.64558,0.709081 -1.79916,0.709081 -0.78317,0 -1.43933,-0.338666 -0.64558,-0.349248 -1.02658,-0.973663 -0.381,-0.624415 -0.381,-1.439329 0,-0.814914 0.381,-1.439329 0.381,-0.624414 1.02658,-0.96308 0.65616,-0.349249 1.43933,-0.349249 1.23824,0 1.88382,0.814914 v -0.730247 z m -3.12207,4.063987 q 0.65616,0 1.06891,-0.380999 0.42333,-0.391582 0.42333,-1.015997 0,-0.624415 -0.42333,-1.005413 -0.41275,-0.391582 -1.06891,-0.391582 -0.65617,0 -1.0795,0.391582 -0.42333,0.380998 -0.42333,1.005413 0,0.624415 0.42333,1.015997 0.42333,0.380999 1.0795,0.380999 z" />
      <path
         id="path887"
         style="font-style:normal;font-variant:normal;font-weight:bold;font-stretch:normal;font-family:Montserrat;-inkscape-font-specification:'Montserrat Bold';fill:#ffffff;fill-opacity:1"
         d="m 128.46209,20.897779 q 1.06892,0 1.69333,0.634998 0.635,0.624415 0.635,1.883828 v 3.259656 h -1.65099 v -3.005657 q 0,-0.677331 -0.28575,-1.005414 -0.27517,-0.338665 -0.79375,-0.338665 -0.58208,0 -0.92075,0.380998 -0.33866,0.370416 -0.33866,1.111247 v 2.857491 h -1.651 v -3.005657 q 0,-1.344079 -1.0795,-1.344079 -0.57149,0 -0.91016,0.380998 -0.33866,0.370416 -0.33866,1.111247 v 2.857491 h -1.651 v -5.693815 h 1.57691 v 0.656164 q 0.3175,-0.359832 0.77258,-0.550331 0.46567,-0.1905 1.016,-0.1905 0.60325,0 1.09008,0.243416 0.48683,0.232833 0.78316,0.687915 0.34925,-0.444499 0.87842,-0.687915 0.53975,-0.243416 1.17474,-0.243416 z" />
      <path
         id="path889"
         style="font-style:normal;font-variant:normal;font-weight:bold;font-stretch:normal;font-family:Montserrat;-inkscape-font-specification:'Montserrat Bold';fill:#ffffff;fill-opacity:1"
         d="m 134.56684,20.897779 q 1.32292,0 2.032,0.634998 0.70908,0.624415 0.70908,1.894411 v 3.249073 h -1.54516 V 25.96718 q -0.46567,0.793747 -1.73566,0.793747 -0.65617,0 -1.143,-0.222249 -0.47625,-0.222249 -0.73025,-0.613831 -0.254,-0.391583 -0.254,-0.888998 0,-0.793747 0.59267,-1.248829 0.60325,-0.455082 1.85207,-0.455082 h 1.31233 q 0,-0.539748 -0.32808,-0.825497 -0.32808,-0.296333 -0.98425,-0.296333 -0.45508,0 -0.89958,0.148167 -0.43391,0.137583 -0.74083,0.380998 l -0.59266,-1.153579 q 0.46566,-0.328083 1.11124,-0.507999 0.65617,-0.179916 1.34408,-0.179916 z m -0.127,4.751902 q 0.42334,0 0.75142,-0.1905 0.32808,-0.201082 0.46566,-0.582081 v -0.582082 h -1.13241 q -1.016,0 -1.016,0.666748 0,0.317499 0.24342,0.507999 0.254,0.179916 0.68791,0.179916 z" />
      <path
         id="path891"
         style="font-style:normal;font-variant:normal;font-weight:bold;font-stretch:normal;font-family:Montserrat;-inkscape-font-specification:'Montserrat Bold';fill:#ffffff;fill-opacity:1"
         d="m 138.80214,20.982446 h 1.651 v 5.693815 h -1.651 z m 0.8255,-0.793748 q -0.45508,0 -0.74083,-0.264582 -0.28575,-0.264583 -0.28575,-0.656165 0,-0.391582 0.28575,-0.656164 0.28575,-0.264583 0.74083,-0.264583 0.45508,0 0.74083,0.253999 0.28575,0.253999 0.28575,0.634998 0,0.412749 -0.28575,0.687915 -0.28575,0.264582 -0.74083,0.264582 z" />
      <path
         id="path893"
         style="font-style:normal;font-variant:normal;font-weight:bold;font-stretch:normal;font-family:Montserrat;-inkscape-font-specification:'Montserrat Bold';fill:#ffffff;fill-opacity:1"
         d="m 141.9854,18.823453 h 1.651 v 7.852808 h -1.651 z" />
      <path
         id="path895"
         style="font-style:normal;font-variant:normal;font-weight:bold;font-stretch:normal;font-family:Montserrat;-inkscape-font-specification:'Montserrat Bold';fill:#ffffff;fill-opacity:1"
         d="m 145.79307,26.760927 q -0.43391,0 -0.73024,-0.296332 -0.29634,-0.296333 -0.29634,-0.740831 0,-0.455082 0.29634,-0.730248 0.29633,-0.285749 0.73024,-0.285749 0.43392,0 0.73025,0.285749 0.29633,0.275166 0.29633,0.730248 0,0.444498 -0.29633,0.740831 -0.29633,0.296332 -0.73025,0.296332 z" />
      <path
         id="path897"
         style="font-style:normal;font-variant:normal;font-weight:bold;font-stretch:normal;font-family:Montserrat;-inkscape-font-specification:'Montserrat Bold';fill:#ffffff;fill-opacity:1"
         d="m 150.60748,26.760927 q -0.91016,0 -1.64041,-0.370415 -0.71966,-0.380999 -1.13241,-1.047747 -0.40217,-0.666748 -0.40217,-1.513412 0,-0.846664 0.40217,-1.513412 0.41275,-0.666747 1.13241,-1.037163 0.73025,-0.380999 1.64041,-0.380999 0.89958,0 1.56633,0.380999 0.67733,0.370416 0.98425,1.068913 l -1.28058,0.687915 q -0.4445,-0.783164 -1.28058,-0.783164 -0.64558,0 -1.06891,0.423332 -0.42334,0.423332 -0.42334,1.153579 0,0.730248 0.42334,1.15358 0.42333,0.423332 1.06891,0.423332 0.84666,0 1.28058,-0.783164 l 1.28058,0.698498 q -0.30692,0.677331 -0.98425,1.058329 -0.66675,0.380999 -1.56633,0.380999 z" />
      <path
         id="path899"
         style="font-style:normal;font-variant:normal;font-weight:bold;font-stretch:normal;font-family:Montserrat;-inkscape-font-specification:'Montserrat Bold';fill:#ffffff;fill-opacity:1"
         d="m 156.74563,26.760927 q -0.89958,0 -1.61925,-0.370415 -0.70908,-0.380999 -1.11124,-1.047747 -0.40217,-0.666748 -0.40217,-1.513412 0,-0.846664 0.40217,-1.513412 0.40216,-0.666747 1.11124,-1.037163 0.71967,-0.380999 1.61925,-0.380999 0.89958,0 1.60866,0.380999 0.70908,0.370416 1.11125,1.037163 0.40216,0.666748 0.40216,1.513412 0,0.846664 -0.40216,1.513412 -0.40217,0.666748 -1.11125,1.047747 -0.70908,0.370415 -1.60866,0.370415 z m 0,-1.354662 q 0.635,0 1.03716,-0.423332 0.41275,-0.433915 0.41275,-1.15358 0,-0.719664 -0.41275,-1.142996 -0.40216,-0.433915 -1.03716,-0.433915 -0.635,0 -1.04775,0.433915 -0.41275,0.423332 -0.41275,1.142996 0,0.719665 0.41275,1.15358 0.41275,0.423332 1.04775,0.423332 z" />
      <path
         id="path901"
         style="font-style:normal;font-variant:normal;font-weight:bold;font-stretch:normal;font-family:Montserrat;-inkscape-font-specification:'Montserrat Bold';fill:#ffffff;fill-opacity:1"
         d="m 168.25282,20.897779 q 1.06891,0 1.69333,0.634998 0.635,0.624415 0.635,1.883828 v 3.259656 h -1.651 v -3.005657 q 0,-0.677331 -0.28575,-1.005414 -0.27516,-0.338665 -0.79375,-0.338665 -0.58208,0 -0.92074,0.380998 -0.33867,0.370416 -0.33867,1.111247 v 2.857491 h -1.65099 v -3.005657 q 0,-1.344079 -1.0795,-1.344079 -0.5715,0 -0.91016,0.380998 -0.33867,0.370416 -0.33867,1.111247 v 2.857491 h -1.65099 v -5.693815 h 1.57691 v 0.656164 q 0.3175,-0.359832 0.77258,-0.550331 0.46566,-0.1905 1.016,-0.1905 0.60324,0 1.09008,0.243416 0.48683,0.232833 0.78316,0.687915 0.34925,-0.444499 0.87841,-0.687915 0.53975,-0.243416 1.17475,-0.243416 z" />
    </g>
  </g>
</svg>
